{
    "streams": [
        {
            "index": 0,
            "codec_name": "h264",
            "codec_long_name": "H.264 / AVC / MPEG-4 AVC / MPEG-4 part 10",
            "profile": "High",
            "codec_type": "video",
            "codec_tag_string": "avc1",
            "codec_tag": "0x31637661",
            "width": 1920,
            "height": 1080,
            "coded_width": 1920,
            "coded_height": 1080,
            "closed_captions": 0,
            "film_grain": 0,
            "has_b_frames": 0,
            "pix_fmt": "yuv420p",
            "level": 52,
            "color_range": "tv",
            "color_space": "bt709",
            "color_transfer": "bt709",
            "color_primaries": "bt709",
            "chroma_location": "left",
            "field_order": "progressive",
            "refs": 1,
            "is_avc": "true",
            "nal_length_size": "4",
            "id": "0x1",
            "r_frame_rate": "30000/1001",
            "avg_frame_rate": "30000/1001",
            "time_base": "1/30000",
            "start_pts": 0,
            "start_time": "0.000000",
            "duration_ts": 46046,
            "duration": "1.534867",
            "bit_rate": "32377592",
            "bits_per_raw_sample": "8",
            "nb_frames": "46",
            "extradata_size": 42,
            "disposition": {
                "default": 1,
                "dub": 0,
                "original": 0,
                "comment": 0,
                "lyrics": 0,
                "karaoke": 0,
                "forced": 0,
                "hearing_impaired": 0,
                "visual_impaired": 0,
                "clean_effects": 0,
                "attached_pic": 0,
                "timed_thumbnails": 0,
                "non_diegetic": 0,
                "captions": 0,
                "descriptions": 0,
                "metadata": 0,
                "dependent": 0,
                "still_image": 0
            },
            "tags": {
                "creation_time": "2025-07-31T23:48:39.000000Z",
                "language": "und",
                "handler_name": "VideoHandler",
                "vendor_id": "[0][0][0][0]",
                "timecode": "16:56:17;04"
            }
        },
        {
            "index": 1,
            "codec_name": "aac",
            "codec_long_name": "AAC (Advanced Audio Coding)",
            "profile": "LC",
            "codec_type": "audio",
            "codec_tag_string": "mp4a",
            "codec_tag": "0x6134706d",
            "sample_fmt": "fltp",
            "sample_rate": "48000",
            "channels": 2,
            "channel_layout": "stereo",
            "bits_per_sample": 0,
            "initial_padding": 0,
            "id": "0x2",
            "r_frame_rate": "0/0",
            "avg_frame_rate": "0/0",
            "time_base": "1/48000",
            "start_pts": 0,
            "start_time": "0.000000",
            "duration_ts": 72704,
            "duration": "1.514667",
            "bit_rate": "317677",
            "nb_frames": "71",
            "extradata_size": 2,
            "disposition": {
                "default": 1,
                "dub": 0,
                "original": 0,
                "comment": 0,
                "lyrics": 0,
                "karaoke": 0,
                "forced": 0,
                "hearing_impaired": 0,
                "visual_impaired": 0,
                "clean_effects": 0,
                "attached_pic": 0,
                "timed_thumbnails": 0,
                "non_diegetic": 0,
                "captions": 0,
                "descriptions": 0,
                "metadata": 0,
                "dependent": 0,
                "still_image": 0
            },
            "tags": {
                "creation_time": "2025-07-31T23:48:39.000000Z",
                "language": "und",
                "handler_name": "SoundHandler",
                "vendor_id": "[0][0][0][0]"
            }
        },
        {
            "index": 2,
            "codec_type": "data",
            "codec_tag_string": "djmd",
            "codec_tag": "0x646d6a64",
            "id": "0x3",
            "r_frame_rate": "0/0",
            "avg_frame_rate": "0/0",
            "time_base": "1/30000",
            "start_pts": 0,
            "start_time": "0.000000",
            "duration_ts": 46046,
            "duration": "1.534867",
            "bit_rate": "29480",
            "nb_frames": "46",
            "disposition": {
                "default": 0,
                "dub": 0,
                "original": 0,
                "comment": 0,
                "lyrics": 0,
                "karaoke": 0,
                "forced": 0,
                "hearing_impaired": 0,
                "visual_impaired": 0,
                "clean_effects": 0,
                "attached_pic": 0,
                "timed_thumbnails": 0,
                "non_diegetic": 0,
                "captions": 0,
                "descriptions": 0,
                "metadata": 0,
                "dependent": 0,
                "still_image": 0
            },
            "tags": {
                "creation_time": "2025-07-31T23:48:39.000000Z",
                "language": "und",
                "handler_name": "DJI meta"
            }
        },
        {
            "index": 3,
            "codec_type": "data",
            "codec_tag_string": "dbgi",
            "codec_tag": "0x69676264",
            "id": "0x4",
            "r_frame_rate": "0/0",
            "avg_frame_rate": "0/0",
            "time_base": "1/30000",
            "start_pts": 0,
            "start_time": "0.000000",
            "duration_ts": 46046,
            "duration": "1.534867",
            "bit_rate": "1120352",
            "nb_frames": "46",
            "disposition": {
                "default": 0,
                "dub": 0,
                "original": 0,
                "comment": 0,
                "lyrics": 0,
                "karaoke": 0,
                "forced": 0,
                "hearing_impaired": 0,
                "visual_impaired": 0,
                "clean_effects": 0,
                "attached_pic": 0,
                "timed_thumbnails": 0,
                "non_diegetic": 0,
                "captions": 0,
                "descriptions": 0,
                "metadata": 0,
                "dependent": 0,
                "still_image": 0
            },
            "tags": {
                "creation_time": "2025-07-31T23:48:39.000000Z",
                "language": "und",
                "handler_name": "DJI dbgi"
            }
        },
        {
            "index": 4,
            "codec_type": "data",
            "codec_tag_string": "tmcd",
            "codec_tag": "0x64636d74",
            "id": "0x7",
            "r_frame_rate": "0/0",
            "avg_frame_rate": "30000/1001",
            "time_base": "1/30000",
            "start_pts": 0,
            "start_time": "0.000000",
            "duration_ts": 46046,
            "duration": "1.534867",
            "bit_rate": "20",
            "nb_frames": "1",
            "extradata_size": 20,
            "disposition": {
                "default": 0,
                "dub": 0,
                "original": 0,
                "comment": 0,
                "lyrics": 0,
                "karaoke": 0,
                "forced": 0,
                "hearing_impaired": 0,
                "visual_impaired": 0,
                "clean_effects": 0,
                "attached_pic": 0,
                "timed_thumbnails": 0,
                "non_diegetic": 0,
                "captions": 0,
                "descriptions": 0,
                "metadata": 0,
                "dependent": 0,
                "still_image": 0
            },
            "tags": {
                "creation_time": "2025-07-31T23:48:39.000000Z",
                "language": "und",
                "handler_name": "TimeCodeHandler",
                "timecode": "16:56:17;04"
            }
        },
        {
            "index": 5,
            "codec_name": "mjpeg",
            "codec_long_name": "Motion JPEG",
            "profile": "Baseline",
            "codec_type": "video",
            "codec_tag_string": "[0][0][0][0]",
            "codec_tag": "0x0000",
            "width": 1280,
            "height": 720,
            "coded_width": 1280,
            "coded_height": 720,
            "closed_captions": 0,
            "film_grain": 0,
            "has_b_frames": 0,
            "sample_aspect_ratio": "1:1",
            "display_aspect_ratio": "16:9",
            "pix_fmt": "yuvj420p",
            "level": -99,
            "color_range": "pc",
            "color_space": "bt470bg",
            "chroma_location": "center",
            "refs": 1,
            "id": "0x0",
            "r_frame_rate": "90000/1",
            "avg_frame_rate": "0/0",
            "time_base": "1/90000",
            "start_pts": 0,
            "start_time": "0.000000",
            "duration_ts": 138138,
            "duration": "1.534867",
            "bits_per_raw_sample": "8",
            "disposition": {
                "default": 0,
                "dub": 0,
                "original": 0,
                "comment": 0,
                "lyrics": 0,
                "karaoke": 0,
                "forced": 0,
                "hearing_impaired": 0,
                "visual_impaired": 0,
                "clean_effects": 0,
                "attached_pic": 1,
                "timed_thumbnails": 0,
                "non_diegetic": 0,
                "captions": 0,
                "descriptions": 0,
                "metadata": 0,
                "dependent": 0,
                "still_image": 0
            }
        }
    ]
}
